<?xml version="1.0" encoding="utf-8"?>
<!-- Generator: Adobe Illustrator 23.0.0, SVG Export Plug-In . SVG Version: 6.00 Build 0)  -->
<svg version="1.1" id="Camada_1" xmlns="http://www.w3.org/2000/svg" xmlns:xlink="http://www.w3.org/1999/xlink" x="0px" y="0px"
	 viewBox="0 0 50 50" style="enable-background:new 0 0 50 50;" xml:space="preserve">
<title>01d</title>
<g>
	<g id="Layer_1">
		<path d="M35.1,14.9L35.1,14.9c-0.1-0.1-0.1-0.4,0-0.5l2.1-2.1c0.1-0.1,0.4-0.1,0.5,0c0.1,0.1,0.1,0.4,0,0.5l-2.1,2.1
			C35.5,15,35.2,15,35.1,14.9"/>
		<path d="M44.6,25.4h-5c-0.2,0-0.4-0.2-0.4-0.4s0.2-0.4,0.4-0.4h5c0.2,0,0.4,0.2,0.4,0.4S44.8,25.4,44.6,25.4"/>
		<path d="M25,45L25,45c-0.2,0-0.4-0.2-0.4-0.4v-4.9c0-0.2,0.2-0.4,0.4-0.4c0.2,0,0.4,0.2,0.4,0.4v4.9C25.4,44.8,25.2,45,25,45"/>
		<path d="M5,25.3L5,25.3c0-0.2,0.2-0.4,0.4-0.4l4.9-0.1c0.2,0,0.4,0.2,0.4,0.4c0,0.2-0.2,0.4-0.4,0.4l-5,0.1
			C5.2,25.7,5,25.5,5,25.3"/>
		<path d="M25,10.7L25,10.7c-0.2,0-0.4-0.2-0.4-0.4V5.4C24.6,5.2,24.8,5,25,5c0.2,0,0.4,0.2,0.4,0.4v4.9
			C25.4,10.5,25.2,10.7,25,10.7"/>
		<path d="M37.2,37.8l-2.1-2.1c-0.1-0.2-0.1-0.4,0.1-0.5c0.1-0.1,0.3-0.1,0.4,0l2.2,2.1c0.2,0.2,0.2,0.4,0,0.5
			C37.6,37.9,37.4,37.9,37.2,37.8"/>
		<path d="M12.2,37.8L12.2,37.8c-0.1-0.1-0.1-0.4,0-0.5l2.1-2.1c0.2-0.1,0.4-0.1,0.5,0.1c0.1,0.1,0.1,0.3,0,0.4l-2.1,2.1
			C12.6,37.9,12.4,37.9,12.2,37.8"/>
		<path d="M14.4,14.9l-2.1-2.1c-0.1-0.1-0.1-0.4,0-0.5c0.1-0.1,0.4-0.1,0.5,0l2.1,2.1c0.1,0.2,0.1,0.4-0.1,0.5
			C14.7,15,14.5,15,14.4,14.9"/>
		<path d="M32.4,17.6c-3.9-3.9-10.2-4.1-14.3-0.5l0.5,0.5c4.1-3.6,10.4-3.1,13.9,1s3.1,10.4-1,13.9s-10.4,3.1-13.9-1
			c-3.2-3.7-3.2-9.2,0-12.9l-0.5-0.5c-3.8,4.4-3.3,11,1.1,14.8s11,3.3,14.8-1.1C36.5,27.7,36.3,21.5,32.4,17.6"/>
	</g>
</g>
</svg>
