<?xml version="1.0" encoding="utf-8"?>
<!-- Generator: Adobe Illustrator 23.0.0, SVG Export Plug-In . SVG Version: 6.00 Build 0)  -->
<svg version="1.1" id="Camada_1" xmlns="http://www.w3.org/2000/svg" xmlns:xlink="http://www.w3.org/1999/xlink" x="0px" y="0px"
	 viewBox="0 0 50 50" style="enable-background:new 0 0 50 50;" xml:space="preserve">
<title>01n</title>
<path d="M28.4,10.5c-0.2-0.1-0.4,0-0.6,0.2c-0.1,0.2-0.2,0.4-0.1,0.6c1.1,2,1.7,4.3,1.7,6.6c0,1-0.1,1.9-0.3,2.8l0.9,0.7
	c0.3-1.1,0.4-2.3,0.4-3.5c0-2-0.4-4.1-1.2-5.9C34.5,14,38,19.1,38,24.7c0,7.6-6.2,13.8-13.8,13.8c-4.7,0-9-2.3-11.5-6.2
	c1,0.2,2,0.3,3,0.3c6.2,0,11.6-3.9,13.8-9.3l-0.9-0.6c-2,5.2-7,8.9-12.9,8.9c-1.4,0-2.7-0.2-4-0.6c-0.2-0.1-0.4,0-0.6,0.2
	c-0.1,0.2-0.2,0.4-0.1,0.6c2.6,4.8,7.6,7.8,13.1,7.8c8.2,0,14.9-6.7,14.9-14.9C39,18.2,34.7,12.3,28.4,10.5"/>
</svg>
