<?xml version="1.0" encoding="utf-8"?>
<!-- Generator: Adobe Illustrator 23.0.0, SVG Export Plug-In . SVG Version: 6.00 Build 0)  -->
<svg version="1.1" id="Camada_1" xmlns="http://www.w3.org/2000/svg" xmlns:xlink="http://www.w3.org/1999/xlink" x="0px" y="0px"
	 viewBox="0 0 50 50" style="enable-background:new 0 0 50 50;" xml:space="preserve">
<title>02d</title>
<g>
	<g id="Layer_1">
		<path d="M27.2,27.6c0-1.8,0.9-3.8,2.4-4.9c0.1-0.1,0.3-0.2,0.4-0.3c2.7-1.6,6.1-0.6,7.7,2.1c0.4,0.7,0.7,1.5,0.7,2.4l0,0.3h0.3
			c3.1,0,5.6,2.7,5.6,5.8s-2.6,5.8-5.6,5.8c-1.2,0-2.4-0.4-3.3-1.2h-0.1h-0.3l-0.1,0c-1,0.8-2.3,1.3-3.6,1.3c-1.4,0-2.3-0.4-3.4-1.6
			l-0.2-0.2l-0.2,0.2c-1,1-2.4,1.5-3.7,1.5c-3.1,0-5.6-2.5-5.6-5.6c0-0.9,0.2-1.7,0.6-2.5c0.1-0.1,0.1-0.3,0.2-0.4
			c1-1.7,2.8-2.7,4.8-2.7c0.5,0,0.9,0.1,1.4,0.2v-0.6c-0.5-0.1-0.9-0.2-1.4-0.2c-2.2,0-4.2,1.1-5.3,3c-0.1,0.1-0.2,0.3-0.2,0.5
			c-0.4,0.9-0.6,1.8-0.6,2.7c0,3.4,2.8,6.2,6.2,6.2c1.4,0,2.8-0.5,3.9-1.4c1.2,1.1,2.2,1.6,3.7,1.6c1.4,0,2.7-0.5,3.8-1.4
			c1,0.8,2.2,1.3,3.5,1.2c3.4,0,6.2-2.9,6.2-6.4c0-3.4-2.7-6.3-6-6.4c-0.4-3.4-3.5-5.8-6.9-5.4c-0.8,0.1-1.7,0.4-2.4,0.8
			c-0.2,0.1-0.3,0.2-0.5,0.3c-1.6,1.2-2.6,3.4-2.6,5.4l0,0"/>
		<path d="M27.4,17.6l1.6-1.6c0.1-0.1,0.1-0.3,0-0.4c-0.1-0.1-0.3-0.1-0.4,0l0,0L27,17.3c-0.1,0.1-0.1,0.3,0,0.4
			C27.1,17.8,27.2,17.8,27.4,17.6"/>
		<path d="M8.9,24.9L5.3,25C5.1,25,5,25.1,5,25.2c0,0.2,0.1,0.3,0.3,0.3l0,0l3.6-0.1c0.2,0,0.3-0.1,0.3-0.3c0,0,0,0,0,0
			C9.2,25,9,24.9,8.9,24.9C8.9,24.9,8.9,24.9,8.9,24.9"/>
		<path d="M19.6,14.6c0.2,0,0.3-0.1,0.3-0.3v-3.6c0-0.2-0.1-0.3-0.3-0.3c-0.2,0-0.3,0.1-0.3,0.3v3.6C19.3,14.5,19.4,14.6,19.6,14.6"
			/>
		<path d="M12.2,32.4c-0.1-0.1-0.3-0.1-0.4,0c0,0,0,0,0,0L10.3,34c-0.1,0.1-0.1,0.3,0,0.4c0.1,0.1,0.3,0.1,0.4,0l1.6-1.6
			C12.3,32.7,12.3,32.5,12.2,32.4"/>
		<path d="M11.8,17.6c0.1,0.1,0.3,0.1,0.4-0.1c0.1-0.1,0.1-0.2,0-0.3l-1.6-1.6c-0.1-0.1-0.3,0-0.4,0.1c-0.1,0.1-0.1,0.2,0,0.3
			L11.8,17.6z"/>
		<path d="M25,19.6c-2.8-2.8-7.4-3-10.4-0.4l0.3,0.3c3-2.6,7.5-2.3,10.1,0.7c0.3,0.4,0.7,0.8,0.9,1.3l0.3-0.4
			C25.9,20.7,25.5,20.1,25,19.6"/>
		<path d="M14.5,30.1c-2.6-2.7-2.8-6.9-0.4-9.8L13.8,20c-2.8,3.2-2.4,8,0.8,10.8c0.6,0.5,1.3,0.9,2,1.3l0.3-0.4
			C16,31.3,15.2,30.8,14.5,30.1"/>
	</g>
</g>
</svg>
