<?xml version="1.0" encoding="utf-8"?>
<!-- Generator: Adobe Illustrator 23.0.0, SVG Export Plug-In . SVG Version: 6.00 Build 0)  -->
<svg version="1.1" id="Camada_1" xmlns="http://www.w3.org/2000/svg" xmlns:xlink="http://www.w3.org/1999/xlink" x="0px" y="0px"
	 viewBox="0 0 50 50" style="enable-background:new 0 0 50 50;" xml:space="preserve">
<title>02n</title>
<g>
	<g id="Layer_1">
		<path d="M25.7,24.5c0-2,1-4.2,2.6-5.3c0.2-0.1,0.3-0.2,0.5-0.3c2.9-1.7,6.7-0.7,8.3,2.2c0.5,0.8,0.7,1.7,0.8,2.6l0,0.3h0.3
			c3.3,0,6.1,2.9,6.1,6.4s-2.8,6.3-6.1,6.3c-1.3,0-2.6-0.4-3.6-1.3l-0.1,0h-0.3l-0.1,0.1c-1.1,0.9-2.5,1.4-3.9,1.4
			c-1.5,0-2.5-0.5-3.7-1.7l-0.2-0.2l-0.2,0.2c-1.1,1-2.6,1.6-4.1,1.6c-3.4,0-6.1-2.7-6.1-6c0-1,0.2-1.9,0.6-2.8
			c0.1-0.1,0.2-0.3,0.2-0.5c1.1-1.8,3.1-3,5.2-3c0.5,0,1,0.1,1.5,0.2v-0.7c-0.5-0.1-1-0.2-1.5-0.2c-2.4,0-4.5,1.2-5.7,3.3
			c-0.1,0.2-0.2,0.3-0.3,0.5c-0.5,0.9-0.7,1.9-0.7,3c0,3.7,3,6.7,6.7,6.7c1.6,0,3.1-0.5,4.3-1.5c1.3,1.2,2.4,1.7,4,1.7
			c1.5,0,3-0.5,4.2-1.5c1.1,0.9,2.4,1.3,3.8,1.3c3.7,0,6.7-3.2,6.7-7c0-3.7-2.9-6.8-6.5-7c-0.5-3.7-3.8-6.3-7.5-5.9
			c-0.9,0.1-1.8,0.4-2.5,0.8c-0.2,0.1-0.4,0.2-0.5,0.4c-1.8,1.3-2.8,3.6-2.8,5.8l0,0"/>
		<path d="M13.9,31.5c-3.1,0-6-1.6-7.8-4.2c0.7,0.1,1.4,0.2,2,0.2c4.1,0,7.8-2.5,9.3-6.3l-0.6-0.4c-1.4,3.6-4.9,6-8.7,6
			c-0.9,0-1.8-0.1-2.7-0.4c-0.1,0-0.3,0-0.4,0.1C5,26.7,5,26.8,5,26.9c1.7,3.2,5.1,5.2,8.8,5.3c0.1-0.2,0.1-0.5,0.2-0.7H13.9"/>
		<path d="M23.9,22.2c0-4.4-2.9-8.3-7.1-9.6c-0.2-0.1-0.4,0.1-0.4,0.2c0,0.1,0,0.2,0,0.3c0.7,1.4,1.1,2.9,1.1,4.5
			c0,0.6-0.1,1.3-0.2,1.9l0.6,0.5c0.2-0.8,0.3-1.6,0.3-2.3c0-1.4-0.3-2.7-0.8-4c3.5,1.4,5.8,4.9,5.8,8.7c0,0.1,0,0.2,0,0.3l0.7,0.2
			C23.9,22.6,23.9,22.3,23.9,22.2"/>
	</g>
</g>
</svg>
