<?xml version="1.0" encoding="utf-8"?>
<!-- Generator: Adobe Illustrator 23.0.0, SVG Export Plug-In . SVG Version: 6.00 Build 0)  -->
<svg version="1.1" id="Camada_1" xmlns="http://www.w3.org/2000/svg" xmlns:xlink="http://www.w3.org/1999/xlink" x="0px" y="0px"
	 viewBox="0 0 50 50" style="enable-background:new 0 0 50 50;" xml:space="preserve">
<title>03n</title>
<g>
	<g id="Layer_1">
		<path d="M19,21c0-2.7,1.3-5.6,3.5-7.1c0.2-0.1,0.4-0.3,0.6-0.4c3.9-2.3,9-0.9,11.2,3c0.6,1.1,1,2.3,1.1,3.5l0.1,0.4h0.4
			c4.5,0,8.3,3.9,8.3,8.6s-3.8,8.5-8.3,8.5c-1.8,0.1-3.5-0.5-4.8-1.7l-0.1,0h-0.4l-0.2,0.1c-1.5,1.2-3.3,1.9-5.2,1.9
			c-2,0-3.3-0.6-5-2.3L19.8,35l-0.3,0.3c-1.5,1.4-3.4,2.2-5.5,2.1c-4.5,0-8.2-3.6-8.2-8.1c0-1.3,0.3-2.6,0.9-3.7
			C6.8,25.4,6.9,25.2,7,25c1.5-2.5,4.1-4,7-4c0.7,0,1.4,0.1,2,0.3v-0.9c-0.7-0.2-1.4-0.3-2-0.2c-3.2,0-6.1,1.7-7.7,4.4
			c-0.1,0.2-0.2,0.5-0.4,0.7c-2.2,4.5-0.4,9.9,4.1,12.1c1.3,0.6,2.6,0.9,4.1,0.9c2.1,0,4.2-0.7,5.8-2.1c1.7,1.6,3.2,2.3,5.3,2.3
			c2,0,4-0.7,5.6-2c1.5,1.2,3.3,1.8,5.2,1.8c4.9,0,9.1-4.3,9.1-9.4c0-5-4-9.2-8.7-9.4c-0.6-5-5.1-8.5-10.1-8
			c-1.2,0.1-2.4,0.5-3.5,1.2c-0.2,0.1-0.5,0.3-0.7,0.5c-2.4,1.7-3.8,4.9-3.8,7.8l0,0"/>
	</g>
</g>
</svg>
