<?xml version="1.0" encoding="utf-8"?>
<!-- Generator: Adobe Illustrator 23.0.0, SVG Export Plug-In . SVG Version: 6.00 Build 0)  -->
<svg version="1.1" id="Camada_1" xmlns="http://www.w3.org/2000/svg" xmlns:xlink="http://www.w3.org/1999/xlink" x="0px" y="0px"
	 viewBox="0 0 50 50" style="enable-background:new 0 0 50 50;" xml:space="preserve">
<title>04d</title>
<g>
	<g id="Layer_1">
		<path d="M39.8,18.6c-0.3-2.9-3-5-5.9-4.7c-0.7,0.1-1.4,0.3-2,0.7c-0.1,0.1-0.3,0.1-0.4,0.2c-0.4,0.3-0.7,0.6-1,1
			c0.1,0.1,0.3,0.1,0.4,0.2c0.2-0.3,0.5-0.6,0.8-0.8c0.1-0.1,0.2-0.1,0.4-0.2c0.7-0.4,1.5-0.6,2.4-0.6c2.5,0,4.6,1.9,4.8,4.5l0,0.2
			h0.2c2.6,0,4.8,2.3,4.8,5s-2.2,5-4.8,5c0,0.1-0.1,0.3-0.1,0.5h0.1c2.9,0,5.4-2.5,5.4-5.5C44.9,21.2,42.6,18.7,39.8,18.6z"/>
		<path d="M16.8,21.6c0-2.2,1.1-4.7,2.9-6c0.1-0.1,0.3-0.2,0.5-0.3c3.3-1.9,7.6-0.8,9.5,2.5c0.5,0.9,0.8,1.9,0.9,2.9l0,0.3h0.3
			c3.7,0,7,3.3,7,7.2s-3.2,7.2-7,7.2c-1.5,0-2.9-0.4-4-1.4l-0.1,0h-0.3l-0.1,0c-1.2,1-2.8,1.6-4.4,1.6c-1.6,0-2.8-0.5-4.2-1.9
			l-0.3-0.3l-0.2,0.2c-1.2,1.2-2.9,1.8-4.6,1.8c-3.8,0-6.9-3-6.9-6.8c0-1.1,0.2-2.1,0.7-3.1c0.1-0.1,0.2-0.3,0.3-0.5
			c1.2-2.1,3.5-3.4,5.9-3.4c0.6,0,1.1,0,1.7,0.2v-0.7c-0.5-0.1-1.1-0.2-1.7-0.2c-2.7,0-5.1,1.4-6.5,3.7C6,24.8,5.9,25,5.8,25.2
			C3.9,29,5.5,33.5,9.2,35.4c1,0.5,2.2,0.8,3.4,0.8c1.8,0,3.5-0.6,4.8-1.7c1.4,1.4,2.7,1.9,4.5,1.9c1.7,0,3.4-0.6,4.7-1.7
			c1.2,1,2.8,1.5,4.3,1.5c4.1,0,7.7-3.6,7.7-7.9c0-4.2-3.3-7.7-7.3-7.9c-0.5-4.2-4.3-7.2-8.5-6.7c-1,0.1-2,0.4-2.9,1
			c-0.2,0.1-0.4,0.2-0.6,0.4c-2,1.4-3.2,4.1-3.2,6.6l0,0"/>
	</g>
</g>
</svg>
