<?xml version="1.0" encoding="utf-8"?>
<!-- Generator: Adobe Illustrator 23.0.0, SVG Export Plug-In . SVG Version: 6.00 Build 0)  -->
<svg version="1.1" id="Camada_1" xmlns="http://www.w3.org/2000/svg" xmlns:xlink="http://www.w3.org/1999/xlink" x="0px" y="0px"
	 viewBox="0 0 50 50" style="enable-background:new 0 0 50 50;" xml:space="preserve">
<title>09n</title>
<g>
	<g id="Layer_1">
		<path d="M39.8,14.4c-0.4-2.9-3-5-6-4.7c-0.7,0.1-1.4,0.3-2,0.7c-0.1,0.1-0.3,0.2-0.4,0.3c-0.4,0.3-0.7,0.6-1,1
			c0.2,0.1,0.3,0.2,0.4,0.3c0.3-0.3,0.5-0.6,0.9-0.8c0.1-0.1,0.2-0.2,0.4-0.2c0.7-0.4,1.6-0.6,2.4-0.6c2.5,0,4.6,2,4.9,4.5l0,0.2
			h0.2c2.6,0,4.9,2.3,4.9,5.1s-2.2,5-4.9,5.1c-0.1,0.2-0.1,0.3-0.2,0.5h0.2c2.9,0,5.4-2.5,5.4-5.6C45,17,42.7,14.5,39.8,14.4z"/>
		<path d="M16.8,17.4c0-2.2,1.1-4.7,2.9-6c0.2-0.1,0.4-0.2,0.5-0.3c3.3-1.9,7.6-0.8,9.5,2.5c0.5,0.9,0.8,1.9,0.9,2.9l0,0.3h0.3
			c3.8,0,7,3.3,7,7.2s-3.2,7.2-7,7.2c-1.5,0.1-2.9-0.5-4.1-1.4l-0.1,0h-0.4l-0.1,0c-1.2,1-2.8,1.6-4.4,1.6c-1.7,0-2.8-0.5-4.3-2
			l-0.2-0.3l-0.3,0.2c-1.2,1.2-2.9,1.8-4.6,1.8c-3.8,0-6.9-3.1-7-6.9c0-1.1,0.2-2.2,0.7-3.1c0.1-0.2,0.2-0.3,0.3-0.5
			c1.2-2.1,3.5-3.4,5.9-3.4c0.6,0,1.2,0.1,1.7,0.2v-0.7c-0.6-0.1-1.1-0.2-1.7-0.2c-2.7,0-5.2,1.4-6.5,3.7C6,20.6,5.9,20.8,5.8,21
			c-1.9,3.8-0.3,8.4,3.5,10.2c1.1,0.5,2.2,0.8,3.4,0.8c1.8,0,3.5-0.6,4.9-1.8c1.5,1.4,2.7,1.9,4.5,1.9c1.7,0,3.4-0.6,4.7-1.7
			c1.2,1,2.8,1.5,4.4,1.5c4.2,0,7.7-3.6,7.7-7.9c0-4.2-3.3-7.8-7.4-7.9C31,12,27.1,8.9,22.9,9.4c-1,0.1-2.1,0.5-3,1
			c-0.2,0.1-0.4,0.2-0.6,0.4c-2,1.4-3.3,4.1-3.3,6.6l0,0"/>
		<path d="M11.3,38c-0.1,0-0.1,0-0.2,0c-0.2-0.1-0.3-0.3-0.2-0.5c0,0,0,0,0,0l1.8-3.7c0.1-0.2,0.3-0.3,0.5-0.2
			c0.2,0.1,0.3,0.3,0.2,0.5l-1.8,3.7C11.6,37.9,11.5,38,11.3,38"/>
		<path d="M17.5,38c-0.1,0-0.1,0-0.2,0c-0.2-0.1-0.3-0.3-0.2-0.5l1.8-3.7c0.1-0.2,0.3-0.3,0.5-0.2c0.2,0.1,0.3,0.3,0.2,0.5
			c0,0,0,0,0,0l-1.8,3.7C17.8,37.9,17.7,38,17.5,38"/>
		<path d="M23.7,38c-0.1,0-0.1,0-0.2,0c-0.2-0.1-0.3-0.3-0.2-0.5l1.8-3.7c0.1-0.2,0.3-0.3,0.5-0.2c0.2,0.1,0.3,0.3,0.2,0.5
			c0,0,0,0,0,0l-1.8,3.7C24,37.9,23.9,38,23.7,38"/>
		<path d="M13.1,40.6c-0.1,0-0.1,0-0.2,0c-0.2-0.1-0.3-0.3-0.2-0.5l2.2-4.5c0.1-0.2,0.3-0.3,0.5-0.2c0.2,0.1,0.3,0.3,0.2,0.5
			l-2.2,4.5C13.4,40.5,13.3,40.6,13.1,40.6"/>
		<path d="M25.6,40.6c-0.1,0-0.1,0-0.2,0c-0.2-0.1-0.3-0.3-0.2-0.5c0,0,0,0,0,0l2.2-4.5c0.1-0.2,0.3-0.3,0.5-0.2
			c0.2,0.1,0.3,0.3,0.2,0.5c0,0,0,0,0,0l-2.2,4.5C25.9,40.5,25.7,40.6,25.6,40.6"/>
		<path d="M19.4,40.6c-0.1,0-0.1,0-0.2,0C19,40.5,18.9,40.2,19,40l2.2-4.5c0.1-0.2,0.3-0.3,0.5-0.2c0.2,0.1,0.3,0.3,0.2,0.5
			l-2.2,4.5C19.7,40.5,19.5,40.6,19.4,40.6"/>
		<path d="M29.9,38c-0.1,0-0.1,0-0.2,0c-0.2-0.1-0.3-0.3-0.2-0.5l1.8-3.7c0.1-0.2,0.3-0.3,0.5-0.2c0.2,0.1,0.3,0.3,0.2,0.5l-1.8,3.7
			C30.2,37.9,30.1,38,29.9,38"/>
	</g>
</g>
</svg>
