<?xml version="1.0" encoding="utf-8"?>
<!-- Generator: Adobe Illustrator 23.0.0, SVG Export Plug-In . SVG Version: 6.00 Build 0)  -->
<svg version="1.1" id="Camada_1" xmlns="http://www.w3.org/2000/svg" xmlns:xlink="http://www.w3.org/1999/xlink" x="0px" y="0px"
	 viewBox="0 0 50 50" style="enable-background:new 0 0 50 50;" xml:space="preserve">
<title>10d</title>
<g>
	<g id="Layer_1">
		<path d="M21,11.2c-3.5-3.5-9.1-3.7-12.8-0.4l0.4,0.4C12.3,8,17.9,8.4,21,12c0.4,0.5,0.8,1,1.1,1.6l0.4-0.5
			C22.1,12.4,21.6,11.8,21,11.2"/>
		<path d="M8.1,24c-3.2-3.3-3.5-8.5-0.5-12l-0.4-0.4c-3.2,3.7-3,9.3,0.4,12.8c0.8,0.8,1.8,1.5,2.9,2l0.4-0.5C10,25.5,9,24.9,8.1,24"
			/>
		<path d="M24.1,18.1c0-2.1,1-4.5,2.8-5.7c0.2-0.1,0.3-0.2,0.5-0.3c3.2-1.8,7.2-0.8,9,2.4c0.5,0.9,0.8,1.8,0.9,2.8l0,0.3h0.3
			c3.6,0,6.6,3.2,6.6,6.9s-3,6.9-6.6,6.9c-1.4,0.1-2.8-0.4-3.9-1.4l-0.1,0h-0.3L33.2,30c-1.2,1-2.7,1.5-4.2,1.5
			c-1.6,0-2.7-0.5-4-1.9l-0.2-0.2l-0.2,0.2c-1.2,1.1-2.8,1.7-4.4,1.7c-3.6,0-6.6-2.9-6.6-6.6c0-1,0.2-2,0.7-3
			c0.1-0.2,0.2-0.3,0.3-0.5c1.2-2,3.3-3.2,5.6-3.2c0.5,0,1.1,0.1,1.6,0.2v-0.7c-0.5-0.1-1.1-0.2-1.6-0.2c-2.6,0-4.9,1.3-6.2,3.5
			c-0.1,0.2-0.2,0.4-0.3,0.5c-1.8,3.6-0.3,8,3.3,9.7c1,0.5,2.1,0.8,3.3,0.8c1.7,0,3.3-0.6,4.6-1.7c1.4,1.3,2.6,1.8,4.3,1.8
			c1.6,0,3.2-0.6,4.5-1.6c1.2,1,2.6,1.5,4.2,1.5c4,0,7.3-3.5,7.3-7.6c0-4-3.2-7.4-7-7.6c-0.5-4-4.1-6.9-8.1-6.4
			c-1,0.1-1.9,0.4-2.8,0.9c-0.2,0.1-0.4,0.2-0.6,0.4c-1.9,1.4-3.1,3.9-3.1,6.3l0,0"/>
		<path d="M18.6,39c-0.1,0-0.1,0-0.2,0c-0.2-0.1-0.3-0.3-0.2-0.5l1.8-3.7c0.1-0.2,0.3-0.3,0.5-0.2c0.2,0.1,0.3,0.3,0.2,0.5L19,38.8
			C18.9,38.9,18.8,39,18.6,39"/>
		<path d="M24.8,39c-0.1,0-0.1,0-0.2,0c-0.2-0.1-0.3-0.3-0.2-0.5l1.8-3.7c0.1-0.2,0.3-0.3,0.5-0.2s0.3,0.3,0.2,0.5c0,0,0,0,0,0
			l-1.8,3.7C25.1,38.9,24.9,39,24.8,39"/>
		<path d="M31,39c-0.1,0-0.1,0-0.2,0c-0.2-0.1-0.3-0.3-0.2-0.5l1.8-3.7c0.1-0.2,0.3-0.3,0.5-0.2c0.2,0.1,0.3,0.3,0.2,0.5l-1.8,3.7
			C31.2,38.9,31.1,39,31,39"/>
		<path d="M20.4,41.6c-0.1,0-0.1,0-0.2,0c-0.2-0.1-0.3-0.3-0.2-0.5c0,0,0,0,0,0l2.2-4.4c0.1-0.2,0.3-0.3,0.5-0.2
			c0.2,0.1,0.3,0.3,0.2,0.5l-2.2,4.4C20.7,41.5,20.6,41.6,20.4,41.6"/>
		<path d="M32.8,41.6c-0.2,0-0.4-0.2-0.4-0.4c0-0.1,0-0.1,0-0.2l2.2-4.4c0.1-0.2,0.3-0.3,0.5-0.2c0.2,0.1,0.3,0.3,0.2,0.5l-2.2,4.4
			C33.1,41.5,32.9,41.6,32.8,41.6"/>
		<path d="M26.6,41.6c-0.1,0-0.1,0-0.2,0c-0.2-0.1-0.3-0.3-0.2-0.5l2.2-4.4c0.1-0.2,0.3-0.3,0.5-0.2c0.2,0.1,0.3,0.3,0.2,0.5
			L27,41.4C26.9,41.5,26.8,41.6,26.6,41.6"/>
		<path d="M37.1,39c-0.1,0-0.1,0-0.2,0c-0.2-0.1-0.3-0.3-0.2-0.5l1.8-3.7c0.1-0.2,0.3-0.3,0.5-0.2c0.2,0.1,0.3,0.3,0.2,0.5l-1.8,3.7
			C37.4,38.9,37.2,39,37.1,39"/>
	</g>
</g>
</svg>
