<?xml version="1.0" encoding="utf-8"?>
<!-- Generator: Adobe Illustrator 23.0.0, SVG Export Plug-In . SVG Version: 6.00 Build 0)  -->
<svg version="1.1" id="Camada_1" xmlns="http://www.w3.org/2000/svg" xmlns:xlink="http://www.w3.org/1999/xlink" x="0px" y="0px"
	 viewBox="0 0 50 50" style="enable-background:new 0 0 50 50;" xml:space="preserve">
<title>10n</title>
<g>
	<g id="Layer_1">
		<path d="M25.8,20.2c0-2,1-4.1,2.6-5.3c0.2-0.1,0.3-0.2,0.5-0.3c2.9-1.7,6.6-0.7,8.3,2.2c0.5,0.8,0.7,1.7,0.8,2.6l0,0.3h0.3
			c3.3,0,6.1,2.9,6.1,6.3s-2.8,6.3-6.1,6.3c-1.3,0-2.6-0.4-3.6-1.3l-0.1,0h-0.3l-0.1,0.1c-1.1,0.9-2.4,1.4-3.8,1.4
			c-1.5,0-2.5-0.5-3.7-1.7l-0.2-0.2l-0.2,0.2c-1.1,1-2.5,1.6-4,1.6c-3.3,0-6.1-2.7-6.1-6c0-0.9,0.2-1.9,0.6-2.7
			c0.1-0.2,0.2-0.3,0.2-0.4c1.1-1.8,3-3,5.1-3c0.5,0,1,0.1,1.5,0.2v-0.6c-0.5-0.1-1-0.2-1.5-0.2c-2.3,0-4.5,1.2-5.7,3.2
			c-0.1,0.2-0.2,0.3-0.3,0.5c-1.6,3.3-0.3,7.3,3,8.9c0.9,0.5,1.9,0.7,3,0.7c1.6,0,3.1-0.5,4.3-1.5c1.3,1.2,2.4,1.7,3.9,1.7
			c1.5,0,2.9-0.5,4.1-1.5c1.1,0.9,2.4,1.4,3.8,1.3c3.6,0,6.7-3.2,6.7-6.9c0-3.7-2.9-6.8-6.4-6.9c-0.4-3.7-3.8-6.3-7.5-5.8
			c-0.9,0.1-1.8,0.4-2.5,0.8c-0.2,0.1-0.4,0.2-0.5,0.3c-1.8,1.3-2.8,3.6-2.8,5.8l0,0"/>
		<path d="M20.8,39.4c-0.1,0-0.1,0-0.2,0c-0.2-0.1-0.2-0.3-0.2-0.5l1.7-3.4c0.1-0.2,0.3-0.3,0.5-0.2c0.2,0.1,0.3,0.3,0.2,0.5
			c0,0,0,0,0,0l-1.7,3.4C21.1,39.3,20.9,39.4,20.8,39.4"/>
		<path d="M26.5,39.4c-0.1,0-0.1,0-0.2,0c-0.2-0.1-0.2-0.3-0.2-0.5c0,0,0,0,0,0l1.7-3.4c0.1-0.2,0.3-0.2,0.5-0.2
			c0.2,0.1,0.2,0.3,0.2,0.5l-1.7,3.4C26.7,39.3,26.6,39.4,26.5,39.4"/>
		<path d="M32.1,39.4c-0.1,0-0.1,0-0.2,0c-0.2-0.1-0.2-0.3-0.2-0.5c0,0,0,0,0,0l1.7-3.4c0.1-0.2,0.3-0.2,0.5-0.2
			c0.2,0.1,0.2,0.3,0.2,0.5l-1.7,3.4C32.4,39.3,32.2,39.4,32.1,39.4"/>
		<path d="M22.5,41.8c-0.2,0-0.4-0.2-0.4-0.4c0-0.1,0-0.1,0-0.2l2-4.1c0.1-0.2,0.3-0.3,0.5-0.2c0.2,0.1,0.3,0.3,0.2,0.5c0,0,0,0,0,0
			l-2,4.1C22.7,41.7,22.6,41.8,22.5,41.8"/>
		<path d="M33.8,41.8c-0.2,0-0.4-0.2-0.4-0.4c0-0.1,0-0.1,0-0.2l2-4.1C35.6,37,35.8,37,36,37c0.2,0.1,0.2,0.3,0.2,0.5l-2,4.1
			C34.1,41.7,33.9,41.8,33.8,41.8"/>
		<path d="M28.1,41.8c-0.1,0-0.1,0-0.2,0c-0.2-0.1-0.2-0.3-0.2-0.5l2-4.1c0.1-0.2,0.3-0.3,0.5-0.2c0.2,0.1,0.3,0.3,0.2,0.5
			c0,0,0,0,0,0l-2,4.1C28.4,41.7,28.3,41.8,28.1,41.8"/>
		<path d="M37.7,39.4c-0.1,0-0.1,0-0.2,0c-0.2-0.1-0.2-0.3-0.2-0.5c0,0,0,0,0,0l1.7-3.4c0.1-0.2,0.3-0.2,0.5-0.2
			c0.2,0.1,0.2,0.3,0.2,0.5l-1.7,3.4C38,39.3,37.9,39.4,37.7,39.4"/>
		<path d="M13.8,27.1c-3.1,0-6-1.6-7.7-4.1c0.7,0.1,1.4,0.2,2,0.2c4.1,0,7.8-2.5,9.3-6.3l-0.6-0.4c-1.4,3.6-4.8,6-8.7,6
			c-0.9,0-1.8-0.1-2.7-0.4c-0.1,0-0.3,0-0.4,0.1C5,22.3,5,22.4,5,22.6c1.7,3.2,5.1,5.2,8.7,5.2c0.1-0.2,0.1-0.5,0.2-0.7H13.8"/>
		<path d="M23.8,17.8c0-4.4-2.9-8.3-7.1-9.6c-0.2-0.1-0.4,0.1-0.4,0.2c0,0.1,0,0.2,0,0.3c0.7,1.4,1.1,2.9,1.1,4.4
			c0,0.6-0.1,1.3-0.2,1.9l0.6,0.5c0.2-0.8,0.3-1.5,0.3-2.3c0-1.4-0.3-2.7-0.8-4c3.5,1.4,5.8,4.8,5.8,8.6c0,0.1,0,0.2,0,0.3l0.7,0.2
			C23.8,18.3,23.8,18,23.8,17.8"/>
	</g>
</g>
</svg>
