<?xml version="1.0" encoding="utf-8"?>
<!-- Generator: Adobe Illustrator 23.0.0, SVG Export Plug-In . SVG Version: 6.00 Build 0)  -->
<svg version="1.1" id="Camada_1" xmlns="http://www.w3.org/2000/svg" xmlns:xlink="http://www.w3.org/1999/xlink" x="0px" y="0px"
	 viewBox="0 0 50 50" style="enable-background:new 0 0 50 50;" xml:space="preserve">
<style type="text/css">
	.st0{fill:none;stroke:#000000;stroke-width:2;stroke-miterlimit:10;}
</style>
<title>11d</title>
<g>
	<g id="Layer_1">
		<path class="st0" d="M26.9,25.1L20.7,35c0,0.1,0,0.1,0,0.2c0,0,0.1,0,0.1,0l4.6-0.2c0.1,0,0.1,0.1,0.1,0.1c0,0,0,0,0,0.1l-2.9,8.1
			c0,0.1,0,0.1,0.1,0.2c0.1,0,0.1,0,0.1,0l6.7-10.6c0-0.1,0-0.1,0-0.2c0,0,0,0-0.1,0h-4.3c-0.1,0-0.1-0.1-0.1-0.1c0,0,0,0,0,0
			l2.2-7.2c0-0.1,0-0.1-0.1-0.2C27,25.1,26.9,25.1,26.9,25.1"/>
		<path d="M36.3,14.5c-0.6-5-5.1-8.5-10.1-7.9c-1.2,0.1-2.4,0.5-3.4,1.1C22.5,7.9,22.3,8,22,8.2c-2.4,1.7-3.8,4.9-3.8,7.8l0,0H19
			c0-2.7,1.3-5.6,3.5-7.1c0.2-0.1,0.4-0.3,0.6-0.4c3.9-2.3,9-0.9,11.2,3c0.6,1.1,1,2.2,1.1,3.4l0.1,0.4h0.4c4.5,0,8.2,3.9,8.2,8.6
			s-3.8,8.6-8.2,8.6c-1.6,0-3.2-0.5-4.5-1.4l-0.1,0.1l-0.5,0.4c1.4,1.2,3.2,1.8,5.1,1.7c4.9,0,9.1-4.3,9.1-9.4
			C45,18.9,41,14.7,36.3,14.5"/>
		<path d="M19.6,30.3c-1.5,1.4-3.5,2.2-5.5,2.1c-4.5,0-8.2-3.6-8.2-8.2c0-1.3,0.3-2.5,0.9-3.7C6.8,20.4,6.9,20.2,7,20
			c1.4-2.5,4.1-4,7-4c0.7,0,1.4,0.1,2,0.3v-0.9c-0.7-0.2-1.3-0.3-2-0.2c-3.2,0-6.1,1.7-7.7,4.4C6.2,19.8,6,20,5.9,20.2
			c-2.2,4.5-0.4,9.9,4.1,12.1c1.3,0.6,2.6,0.9,4,0.9c2.1,0,4.1-0.7,5.7-2.1L19.6,30.3z"/>
	</g>
</g>
</svg>
