<?xml version="1.0" encoding="utf-8"?>
<!-- Generator: Adobe Illustrator 23.0.0, SVG Export Plug-In . SVG Version: 6.00 Build 0)  -->
<svg version="1.1" id="Camada_1" xmlns="http://www.w3.org/2000/svg" xmlns:xlink="http://www.w3.org/1999/xlink" x="0px" y="0px"
	 viewBox="0 0 50 50" style="enable-background:new 0 0 50 50;" xml:space="preserve">
<title>50d</title>
<g>
	<g id="Layer_1">
		<path d="M36.4,25.4H5.6c-0.3,0-0.5-0.2-0.6-0.5c0-0.3,0.2-0.5,0.5-0.6c0,0,0.1,0,0.1,0h30.8c0.3,0,0.5,0.2,0.5,0.5
			C36.9,25.1,36.6,25.4,36.4,25.4"/>
		<path d="M40,30.2H11.6c-0.3,0-0.5-0.2-0.6-0.5c0-0.3,0.2-0.5,0.5-0.6c0,0,0.1,0,0.1,0H40c0.3,0,0.5,0.2,0.5,0.5
			C40.5,30,40.3,30.2,40,30.2"/>
		<path d="M27.6,35h-9.1c-0.3,0-0.5-0.2-0.6-0.5c0-0.3,0.2-0.5,0.5-0.6c0,0,0.1,0,0.1,0h9.1c0.3,0,0.5,0.2,0.6,0.5
			c0,0.3-0.2,0.5-0.5,0.6C27.7,35,27.7,35,27.6,35"/>
		<path d="M12.8,16h26.6c0.3,0,0.5-0.2,0.5-0.5c0-0.3-0.2-0.5-0.5-0.5c0,0,0,0,0,0H12.8V16z"/>
		<path d="M5.7,16h4.9v-1H5.7c-0.3,0-0.5,0.2-0.6,0.5c0,0.3,0.2,0.5,0.5,0.6C5.6,16,5.6,16,5.7,16"/>
		<path d="M11.2,20.8h33.2c0.3,0,0.5-0.2,0.6-0.5c0-0.3-0.2-0.5-0.5-0.6c0,0-0.1,0-0.1,0H11.2c-0.3,0-0.5,0.2-0.5,0.5
			C10.7,20.6,11,20.8,11.2,20.8L11.2,20.8"/>
	</g>
</g>
</svg>
